<svg xmlns="http://www.w3.org/2000/svg" xmlns:xlink="http://www.w3.org/1999/xlink" width="16" height="16" viewBox="0 0 16 16"><defs><path id="z6oya" d="M1234 2940.146v13.707c0 .633-.527 1.146-1.182 1.146h-13.635c-.653 0-1.183-.513-1.183-1.146v-13.707c0-.632.53-1.147 1.183-1.147h13.635c.655 0 1.182.515 1.182 1.147zm-11.149 5.022h-2.417v7.226h2.417zm.159-2.234c-.016-.708-.525-1.249-1.352-1.249-.826 0-1.368.541-1.368 1.249 0 .693.526 1.248 1.337 1.248h.015c.843 0 1.368-.555 1.368-1.248zm8.556 5.317c0-2.22-1.193-3.252-2.784-3.252-1.284 0-1.857.702-2.179 1.194v-1.025h-2.414c.03.679 0 7.226 0 7.226h2.414v-4.036c0-.216.018-.431.082-.586.174-.431.57-.878 1.24-.878.874 0 1.223.662 1.223 1.634v3.866h2.418zm-4.976-2.035c.004-.007.01-.015.013-.023v.023z"/></defs><g><g transform="translate(-1218 -2939)"><use fill="#afa5a3" xlink:href="#z6oya"/></g></g></svg>