<svg xmlns="http://www.w3.org/2000/svg" xmlns:xlink="http://www.w3.org/1999/xlink" width="36" height="36" viewBox="0 0 36 36"><defs><path id="usgha" d="M41.998 2091.429c2.22.953 4.132 2.233 5.738 3.84 1.607 1.606 2.886 3.519 3.84 5.737a17.542 17.542 0 0 1 1.43 7.003c0 3.253-.801 6.26-2.408 9.021a17.795 17.795 0 0 1-6.566 6.55c-2.771 1.607-5.783 2.41-9.036 2.41-3.253 0-6.26-.803-9.021-2.41a17.826 17.826 0 0 1-6.55-6.55c-1.607-2.761-2.41-5.768-2.41-9.02 0-3.255.803-6.266 2.41-9.037a17.805 17.805 0 0 1 6.55-6.566c2.762-1.606 5.768-2.409 9.02-2.409 2.45 0 4.785.477 7.003 1.43zm-6.851 7.514l-12.109 8.976 12.109 8.855-.061-5.843h9.036v-6.055h-8.975z"/></defs><g><g transform="translate(-17 -2090)"><use fill="#aaa" xlink:href="#usgha"/></g></g></svg>