<svg xmlns="http://www.w3.org/2000/svg" xmlns:xlink="http://www.w3.org/1999/xlink" width="16" height="12" viewBox="0 0 16 12"><defs><path id="rz30a" d="M1255.187 2945.58c.897-.072 1.507-.471 1.743-1.014-.325.195-1.33.41-1.887.205a6.574 6.574 0 0 0-.087-.358c-.425-1.522-1.873-2.747-3.393-2.597.122-.048.247-.096.372-.136.168-.057 1.149-.214.995-.554-.131-.297-1.33.225-1.555.294.297-.109.79-.296.844-.633a2.386 2.386 0 0 0-1.252.581.842.842 0 0 0 .24-.466c-1.218.76-1.929 2.294-2.504 3.783-.452-.43-.853-.766-1.21-.954-1.01-.528-2.216-1.079-4.107-1.767-.058.612.308 1.427 1.368 1.968-.229-.03-.649.037-.984.115.136.703.583 1.28 1.792 1.558-.552.037-.837.159-1.097.424.252.488.866 1.063 1.97.944-1.227.518-.5 1.477.499 1.334-1.704 1.721-4.391 1.595-5.934.155 4.027 5.369 12.785 3.176 14.09-1.997.978.01 1.553-.332 1.91-.705-.565.094-1.381-.004-1.813-.18z"/></defs><g><g transform="translate(-1241 -2940)"><use fill="#afa5a3" xlink:href="#rz30a"/></g></g></svg>