<svg xmlns="http://www.w3.org/2000/svg" xmlns:xlink="http://www.w3.org/1999/xlink" width="16" height="10" viewBox="0 0 16 10"><defs><path id="cuz2a" d="M1275.002 2948.33l-7.088-6.313.086-.018h14l.14.029zM1283 2943v8a.965.965 0 0 1-.133.47l-4.976-4.355 5.04-4.45c.04.106.069.216.069.335zm-10.885 4.1l-5.023 4.308a.987.987 0 0 1-.092-.408v-8c0-.137.03-.268.078-.387zm5.02.682l4.82 4.218H1268l-.053-.01 4.922-4.219 2.129 1.898z"/></defs><g><g transform="translate(-1267 -2942)"><use fill="#afa5a3" xlink:href="#cuz2a"/></g></g></svg>