<svg xmlns="http://www.w3.org/2000/svg" xmlns:xlink="http://www.w3.org/1999/xlink" width="36" height="36" viewBox="0 0 36 36"><defs><path id="673xa" d="M219.004 2882.998c3.253 0 6.26.803 9.021 2.408a17.803 17.803 0 0 1 6.55 6.567c1.606 2.77 2.41 5.782 2.41 9.036 0 3.253-.804 6.26-2.41 9.02a17.826 17.826 0 0 1-6.55 6.551c-2.762 1.606-5.768 2.41-9.021 2.41-3.253 0-6.265-.804-9.036-2.41a17.796 17.796 0 0 1-6.566-6.55c-1.607-2.762-2.409-5.768-2.409-9.021 0-2.45.477-4.784 1.43-7.003.955-2.219 2.234-4.131 3.841-5.738 1.606-1.606 3.518-2.886 5.738-3.84a17.535 17.535 0 0 1 7.002-1.43zm-.151 14.877h-8.975v6.055h9.036l-.061 5.844 12.108-8.856-12.108-8.975z"/></defs><g><g transform="translate(-201 -2883)"><use fill="#f26242" xlink:href="#673xa"/></g></g></svg>